<?xml version="1.0" encoding="UTF-8" standalone="no"?>
<svg width="204px" height="36px" viewBox="0 0 204 36" version="1.1" xmlns="http://www.w3.org/2000/svg" xmlns:xlink="http://www.w3.org/1999/xlink">
    <!-- Generator: Sketch 3.8.1 (29687) - http://www.bohemiancoding.com/sketch -->
    <title>speech-bubbles-outline</title>
    <desc>Created with Sketch.</desc>
    <defs></defs>
    <g id="Screens" stroke="none" stroke-width="1" fill="none" fill-rule="evenodd">
        <g id="02.login" transform="translate(-85.000000, -69.000000)" fill="#FFFFFF">
            <g id="speech-bubbles-outline" transform="translate(85.000000, 69.000000)">
                <g id="Group">
                    <path d="M24.1490943,0.00587755102 C16.0959623,0.00587755102 9.56824528,6.52334694 9.56824528,14.5645714 C9.56824528,22.5433469 15.9966226,29.0182041 23.9629245,29.1181224 L23.9629245,35.3115918 L33.9270566,25.3645714 C36.8778113,22.7013061 38.7306792,18.8493061 38.7306792,14.5645714 C38.7299434,6.52334694 32.2014906,0.00587755102 24.1490943,0.00587755102 L24.1490943,0.00587755102 Z" id="Shape"></path>
                    <path d="M10.466717,26.8493878 C7.12972355,26.7597551 2.94339623,23.3845714 2.94339623,19.240898 C2.94339623,15.8282449 5.20466038,12.9350204 8.30920755,11.9718367 C8.48949057,10.8712653 8.78309434,9.80816327 9.17677358,8.79428571 C4.00669811,9.47608163 0,13.8952653 0,19.240898 C0,24.4910204 3.91103774,28.8962449 8.97662264,29.6654694 L8.97662264,35.7252245 L16.2401887,28.4730612 C15.3711509,27.9764082 14.5536226,27.4033469 13.7949623,26.7597551 C13.7949623,26.7597551 11.5688897,26.8789925 10.466717,26.8493878 Z" id="Shape"></path>
                </g>
                <path d="M61.41,10.16 L61.41,12.37 L57.06,12.37 L57.06,24.62 L54.37,24.62 L54.37,12.37 L50,12.37 L50,10.16 L61.41,10.16 Z M73.86,24.62 L71.78,24.62 C71.5466655,24.62 71.3550008,24.5616673 71.205,24.445 C71.0549993,24.3283328 70.946667,24.1833342 70.88,24.01 L69.8,21.06 L63.81,21.06 L62.73,24.01 C62.6766664,24.1633341 62.5716674,24.3033327 62.415,24.43 C62.2583325,24.5566673 62.0666678,24.62 61.84,24.62 L59.75,24.62 L65.43,10.16 L68.18,10.16 L73.86,24.62 Z M64.5,19.16 L69.11,19.16 L67.35,14.35 C67.2699996,14.1366656 67.1816672,13.8850015 67.085,13.595 C66.9883329,13.3049986 66.8933338,12.9900017 66.8,12.65 C66.7066662,12.9900017 66.6150005,13.3066652 66.525,13.6 C66.4349995,13.8933348 66.3466671,14.1499989 66.26,14.37 L64.5,19.16 Z M77.54,22.4 L83.33,22.4 L83.33,24.62 L74.85,24.62 L74.85,10.16 L77.54,10.16 L77.54,22.4 Z M87.47,16.22 L88.1,16.22 C88.3533346,16.22 88.5633325,16.1850004 88.73,16.115 C88.8966675,16.0449997 89.0399994,15.9333341 89.16,15.78 L93.15,10.73 C93.3166675,10.5166656 93.4916658,10.3683338 93.675,10.285 C93.8583343,10.2016662 94.0899986,10.16 94.37,10.16 L96.69,10.16 L91.82,16.17 C91.6666659,16.3566676 91.5200007,16.5133327 91.38,16.64 C91.2399993,16.7666673 91.0900008,16.8699996 90.93,16.95 C91.1500011,17.0300004 91.3483325,17.1433326 91.525,17.29 C91.7016676,17.4366674 91.8733325,17.6233322 92.04,17.85 L97.06,24.62 L94.68,24.62 C94.3599984,24.62 94.1216675,24.5750005 93.965,24.485 C93.8083325,24.3949996 93.6766672,24.2633342 93.57,24.09 L89.48,18.75 C89.346666,18.5766658 89.1966675,18.4516671 89.03,18.375 C88.8633325,18.298333 88.6266682,18.26 88.32,18.26 L87.47,18.26 L87.47,24.62 L84.78,24.62 L84.78,10.15 L87.47,10.15 L87.47,16.22 Z M101.18,24.62 L98.48,24.62 L98.48,10.16 L101.18,10.16 L101.18,24.62 Z M105.34,10.16 C105.460001,10.16 105.56,10.1649999 105.64,10.175 C105.72,10.1850001 105.791666,10.2049999 105.855,10.235 C105.918334,10.2650002 105.98,10.3083331 106.04,10.365 C106.1,10.4216669 106.166666,10.4966662 106.24,10.59 L113.83,20.26 C113.803333,20.0266655 113.785,19.7983344 113.775,19.575 C113.765,19.3516655 113.76,19.1433343 113.76,18.95 L113.76,10.16 L116.13,10.16 L116.13,24.62 L114.74,24.62 C114.526666,24.62 114.350001,24.586667 114.21,24.52 C114.069999,24.453333 113.933334,24.3333342 113.8,24.16 L106.24,14.53 C106.26,14.7433344 106.275,14.954999 106.285,15.165 C106.295,15.3750011 106.3,15.5666658 106.3,15.74 L106.3,24.62 L103.93,24.62 L103.93,10.16 L105.34,10.16 Z M125.19,22.64 C125.79667,22.64 126.324998,22.5850006 126.775,22.475 C127.225002,22.3649995 127.653331,22.2133343 128.06,22.02 L128.06,19.39 L126.25,19.39 C126.076666,19.39 125.94,19.3416671 125.84,19.245 C125.74,19.1483329 125.69,19.0300007 125.69,18.89 L125.69,17.37 L130.5,17.37 L130.5,23.22 C130.133331,23.486668 129.751669,23.7183324 129.355,23.915 C128.958331,24.1116677 128.535002,24.2733327 128.085,24.4 C127.634998,24.5266673 127.153336,24.6216664 126.64,24.685 C126.126664,24.7483337 125.573336,24.78 124.98,24.78 C123.926661,24.78 122.956671,24.5966685 122.07,24.23 C121.183329,23.8633315 120.41667,23.3533366 119.77,22.7 C119.12333,22.0466634 118.618335,21.2666712 118.255,20.36 C117.891665,19.4533288 117.71,18.4633387 117.71,17.39 C117.71,16.3033279 117.886665,15.3066712 118.24,14.4 C118.593335,13.4933288 119.094997,12.7133366 119.745,12.06 C120.395003,11.4066634 121.183329,10.9000018 122.11,10.54 C123.036671,10.1799982 124.076661,10 125.23,10 C126.410006,10 127.431662,10.1749983 128.295,10.525 C129.158338,10.8750018 129.889997,11.3299972 130.49,11.89 L129.71,13.11 C129.556666,13.3566679 129.353335,13.48 129.1,13.48 C128.939999,13.48 128.776668,13.4266672 128.61,13.32 C128.396666,13.1933327 128.178334,13.0666673 127.955,12.94 C127.731666,12.8133327 127.485001,12.7033338 127.215,12.61 C126.944999,12.5166662 126.641668,12.4400003 126.305,12.38 C125.968332,12.3199997 125.580002,12.29 125.14,12.29 C124.426663,12.29 123.78167,12.4099988 123.205,12.65 C122.62833,12.8900012 122.136669,13.2333311 121.73,13.68 C121.323331,14.1266689 121.010001,14.6633302 120.79,15.29 C120.569999,15.9166698 120.46,16.6166628 120.46,17.39 C120.46,18.2233375 120.576665,18.9649968 120.81,19.615 C121.043335,20.2650032 121.369998,20.8133311 121.79,21.26 C122.210002,21.7066689 122.709997,22.0483322 123.29,22.285 C123.870003,22.5216679 124.50333,22.64 125.19,22.64 L125.19,22.64 Z M138.65,19.53 L138.65,24.62 L135.96,24.62 L135.96,10.16 L140.67,10.16 C141.636672,10.16 142.47333,10.2733322 143.18,10.5 C143.88667,10.7266678 144.469998,11.0433313 144.93,11.45 C145.390002,11.8566687 145.729999,12.3433305 145.95,12.91 C146.170001,13.4766695 146.28,14.0966633 146.28,14.77 C146.28,15.4700035 146.163335,16.1116637 145.93,16.695 C145.696666,17.2783362 145.346669,17.7799979 144.88,18.2 C144.413331,18.6200021 143.830003,18.9466655 143.13,19.18 C142.429997,19.4133345 141.610005,19.53 140.67,19.53 L138.65,19.53 Z M138.65,17.43 L140.67,17.43 C141.163336,17.43 141.593331,17.368334 141.96,17.245 C142.326669,17.1216661 142.629999,16.9450011 142.87,16.715 C143.110001,16.4849989 143.289999,16.2050016 143.41,15.875 C143.530001,15.5449984 143.59,15.1766687 143.59,14.77 C143.59,14.3833314 143.530001,14.0333349 143.41,13.72 C143.289999,13.4066651 143.110001,13.1400011 142.87,12.92 C142.629999,12.6999989 142.326669,12.5316673 141.96,12.415 C141.593331,12.2983328 141.163336,12.24 140.67,12.24 L138.65,12.24 L138.65,17.43 Z M161.74,17.39 C161.74,18.4500053 161.563335,19.4316622 161.21,20.335 C160.856665,21.2383379 160.360003,22.0199967 159.72,22.68 C159.079997,23.3400033 158.310005,23.8549982 157.41,24.225 C156.509996,24.5950018 155.513339,24.78 154.42,24.78 C153.326661,24.78 152.328338,24.5950018 151.425,24.225 C150.521662,23.8549982 149.748337,23.3400033 149.105,22.68 C148.461663,22.0199967 147.963335,21.2383379 147.61,20.335 C147.256665,19.4316622 147.08,18.4500053 147.08,17.39 C147.08,16.3299947 147.256665,15.3483379 147.61,14.445 C147.963335,13.5416622 148.461663,12.7600033 149.105,12.1 C149.748337,11.4399967 150.521662,10.9250019 151.425,10.555 C152.328338,10.1849982 153.326661,10 154.42,10 C155.513339,10 156.509996,10.1866648 157.41,10.56 C158.310005,10.9333352 159.079997,11.44833 159.72,12.105 C160.360003,12.76167 160.856665,13.5416622 161.21,14.445 C161.563335,15.3483379 161.74,16.3299947 161.74,17.39 L161.74,17.39 Z M158.98,17.39 C158.98,16.5966627 158.875001,15.8850032 158.665,15.255 C158.454999,14.6249969 158.153335,14.0900022 157.76,13.65 C157.366665,13.2099978 156.888336,12.8733345 156.325,12.64 C155.761664,12.4066655 155.12667,12.29 154.42,12.29 C153.71333,12.29 153.076669,12.4066655 152.51,12.64 C151.943331,12.8733345 151.461669,13.2099978 151.065,13.65 C150.668331,14.0900022 150.363334,14.6249969 150.15,15.255 C149.936666,15.8850032 149.83,16.5966627 149.83,17.39 C149.83,18.1833373 149.936666,18.8949969 150.15,19.525 C150.363334,20.1550031 150.668331,20.6883311 151.065,21.125 C151.461669,21.5616689 151.943331,21.8966655 152.51,22.13 C153.076669,22.3633345 153.71333,22.48 154.42,22.48 C155.12667,22.48 155.761664,22.3633345 156.325,22.13 C156.888336,21.8966655 157.366665,21.5616689 157.76,21.125 C158.153335,20.6883311 158.454999,20.1550031 158.665,19.525 C158.875001,18.8949969 158.98,18.1833373 158.98,17.39 L158.98,17.39 Z M166.39,24.62 L163.69,24.62 L163.69,10.16 L166.39,10.16 L166.39,24.62 Z M170.55,10.16 C170.670001,10.16 170.77,10.1649999 170.85,10.175 C170.93,10.1850001 171.001666,10.2049999 171.065,10.235 C171.128334,10.2650002 171.19,10.3083331 171.25,10.365 C171.31,10.4216669 171.376666,10.4966662 171.45,10.59 L179.04,20.26 C179.013333,20.0266655 178.995,19.7983344 178.985,19.575 C178.975,19.3516655 178.97,19.1433343 178.97,18.95 L178.97,10.16 L181.34,10.16 L181.34,24.62 L179.95,24.62 C179.736666,24.62 179.560001,24.586667 179.42,24.52 C179.279999,24.453333 179.143334,24.3333342 179.01,24.16 L171.45,14.53 C171.47,14.7433344 171.485,14.954999 171.495,15.165 C171.505,15.3750011 171.51,15.5666658 171.51,15.74 L171.51,24.62 L169.14,24.62 L169.14,10.16 L170.55,10.16 Z M193.95,10.16 L193.95,12.37 L189.6,12.37 L189.6,24.62 L186.91,24.62 L186.91,12.37 L182.54,12.37 L182.54,10.16 L193.95,10.16 Z M202.91,12.79 C202.836666,12.9366674 202.751667,13.0399997 202.655,13.1 C202.558333,13.1600003 202.443334,13.19 202.31,13.19 C202.176666,13.19 202.026668,13.1383339 201.86,13.035 C201.693332,12.9316661 201.496668,12.8166673 201.27,12.69 C201.043332,12.5633327 200.778335,12.4483339 200.475,12.345 C200.171665,12.2416662 199.813335,12.19 199.4,12.19 C199.026665,12.19 198.701668,12.2349996 198.425,12.325 C198.148332,12.4150005 197.915001,12.5399992 197.725,12.7 C197.534999,12.8600008 197.393334,13.0516656 197.3,13.275 C197.206666,13.4983345 197.16,13.743332 197.16,14.01 C197.16,14.3500017 197.254999,14.6333322 197.445,14.86 C197.635001,15.0866678 197.886665,15.2799992 198.2,15.44 C198.513335,15.6000008 198.869998,15.7433327 199.27,15.87 C199.670002,15.9966673 200.078331,16.1316659 200.495,16.275 C200.911669,16.418334 201.319998,16.5849991 201.72,16.775 C202.120002,16.965001 202.476665,17.2049985 202.79,17.495 C203.103335,17.7850014 203.354999,18.1399979 203.545,18.56 C203.735001,18.9800021 203.83,19.489997 203.83,20.09 C203.83,20.7433366 203.718334,21.3549971 203.495,21.925 C203.271666,22.4950029 202.945002,22.9916645 202.515,23.415 C202.084998,23.8383354 201.560003,24.1716655 200.94,24.415 C200.319997,24.6583346 199.610004,24.78 198.81,24.78 C198.349998,24.78 197.896669,24.7350005 197.45,24.645 C197.003331,24.5549996 196.575002,24.4266675 196.165,24.26 C195.754998,24.0933325 195.371668,23.8933345 195.015,23.66 C194.658332,23.4266655 194.340001,23.1666681 194.06,22.88 L194.84,21.59 C194.913334,21.4966662 195.001666,21.4183337 195.105,21.355 C195.208334,21.2916664 195.323333,21.26 195.45,21.26 C195.616667,21.26 195.796666,21.3283327 195.99,21.465 C196.183334,21.6016674 196.411665,21.7533325 196.675,21.92 C196.938335,22.0866675 197.248332,22.2383327 197.605,22.375 C197.961668,22.5116673 198.389998,22.58 198.89,22.58 C199.656671,22.58 200.249998,22.3983352 200.67,22.035 C201.090002,21.6716649 201.3,21.1500034 201.3,20.47 C201.3,20.0899981 201.205001,19.7800012 201.015,19.54 C200.824999,19.2999988 200.573335,19.0983341 200.26,18.935 C199.946665,18.7716659 199.590002,18.6333339 199.19,18.52 C198.789998,18.4066661 198.383335,18.283334 197.97,18.15 C197.556665,18.016666 197.150002,17.8566676 196.75,17.67 C196.349998,17.4833324 195.993335,17.2400015 195.68,16.94 C195.366665,16.6399985 195.115001,16.2650023 194.925,15.815 C194.734999,15.3649978 194.64,14.8100033 194.64,14.15 C194.64,13.6233307 194.744999,13.1100025 194.955,12.61 C195.165001,12.1099975 195.471665,11.6666686 195.875,11.28 C196.278335,10.8933314 196.77333,10.5833345 197.36,10.35 C197.94667,10.1166655 198.616663,10 199.37,10 C200.223338,10 201.009996,10.133332 201.73,10.4 C202.450004,10.666668 203.063331,11.0399976 203.57,11.52 L202.91,12.79 Z" id="Talking-Points"></path>
            </g>
        </g>
    </g>
</svg>