<?xml version="1.0" encoding="utf-8"?>
<!-- Generator: Adobe Illustrator 19.2.1, SVG Export Plug-In . SVG Version: 6.00 Build 0)  -->
<svg width="27px" height="34px" viewBox="0 0 27 34" version="1.1" xmlns="http://www.w3.org/2000/svg" xmlns:xlink="http://www.w3.org/1999/xlink">
    <title>favicon</title>
    <g id="favicon" stroke="none" stroke-width="1" fill="none" fill-rule="evenodd">
        <g id="Group" fill-rule="nonzero">
            <g id="bb">
                <path d="M9.8740107,31.2334047 C15.4087701,31.2334047 19.9251337,27.6192536 19.9251337,22.0418599 C19.9251337,18.6954237 18.0654545,16.1521322 15.0102674,14.8581768 C17.3570053,13.5642215 18.906738,11.1101682 18.906738,8.12068522 C18.906738,3.30181707 14.8375932,0 9.72025152,0 L0,0 L0,31.2334047 L9.8740107,31.2334047 Z" id="purple" fill="#611998"></path>
                <path d="M16.8766845,33.9271949 C22.4114439,33.9271949 26.9278075,30.3130437 26.9278075,24.73565 C26.9278075,21.3892138 25.0681283,18.8459223 22.0129412,17.551967 C24.3596791,16.2580116 25.9094118,13.8039584 25.9094118,10.8144754 C25.9094118,5.99560722 21.840267,2.69379015 16.7229253,2.69379015 L7.0026738,2.69379015 L7.0026738,33.9271949 L16.8766845,33.9271949 Z" id="green" fill="#00FFD6"></path>
                <path d="M16.7044324,2.69379015 C18.0805012,4.08586236 18.906738,5.94925576 18.906738,8.12068522 C18.906738,11.1101682 17.3570053,13.5642215 15.0102674,14.8581768 C18.0654545,16.1521322 19.9251337,18.6954237 19.9251337,22.0418599 C19.9251337,27.5634797 15.4986457,31.1609254 10.0397445,31.2323221 L9.8740107,31.2334047 L7.0026738,31.2334047 L7.0026738,2.69379015 L16.7044324,2.69379015 Z" id="intersection" fill="#9143CD"></path>
            </g>
        </g>
    </g>
</svg>
